<svg  version="1.1" id="Layer_1" xmlns="&ns_svg;" xmlns:xlink="&ns_xlink;" width="300" height="300" viewBox="0 0 300 300"
	 style="overflow:visible;enable-background:new 0 0 300 300;" xml:space="preserve">
<rect x="224.5" y="1.1" style="fill:none;stroke:#000000;stroke-width:2.1282;" width="74.4" height="74.4"/>
<rect x="224.5" y="75.6" style="fill:none;stroke:#000000;stroke-width:2.1282;" width="74.4" height="74.4"/>
<rect x="224.5" y="150.1" style="fill:none;stroke:#000000;stroke-width:2.1282;" width="74.4" height="74.4"/>
<rect x="224.5" y="224.5" style="fill:none;stroke:#000000;stroke-width:2.1282;" width="74.4" height="74.4"/>
<rect x="150.1" y="1.1" style="fill:none;stroke:#000000;stroke-width:2.1282;" width="74.4" height="74.4"/>
<rect x="150.1" y="75.6" style="fill:none;stroke:#000000;stroke-width:2.1282;" width="74.4" height="74.4"/>
<rect x="150.1" y="150.1" style="fill:none;stroke:#000000;stroke-width:2.1282;" width="74.4" height="74.4"/>
<rect x="150.1" y="224.5" style="fill:none;stroke:#000000;stroke-width:2.1282;" width="74.4" height="74.4"/>
<rect x="75.6" y="1.1" style="fill:none;stroke:#000000;stroke-width:2.1282;" width="74.4" height="74.4"/>
<rect x="75.6" y="75.6" style="fill:none;stroke:#000000;stroke-width:2.1282;" width="74.4" height="74.4"/>
<rect x="75.6" y="150.1" style="fill:none;stroke:#000000;stroke-width:2.1282;" width="74.4" height="74.4"/>
<rect x="75.6" y="224.5" style="fill:none;stroke:#000000;stroke-width:2.1282;" width="74.4" height="74.4"/>
<rect x="1.1" y="1.1" style="fill:none;stroke:#000000;stroke-width:2.1282;" width="74.4" height="74.4"/>
<rect x="1.1" y="75.6" style="fill:none;stroke:#000000;stroke-width:2.1282;" width="74.4" height="74.4"/>
<rect x="1.1" y="150.1" style="fill:none;stroke:#000000;stroke-width:2.1282;" width="74.4" height="74.4"/>
<rect x="1.1" y="224.5" style="fill:none;stroke:#000000;stroke-width:2.1282;" width="74.4" height="74.4"/>
<line style="fill:none;stroke:#000000;stroke-width:2.1277;" x1="1.1" y1="1.1" x2="299" y2="299"/>
<line style="fill:none;stroke:#000000;stroke-width:2.1277;" x1="1.1" y1="150.1" x2="150.1" y2="299"/>
<line style="fill:none;stroke:#000000;stroke-width:2.1277;" x1="150.1" y1="1.1" x2="299" y2="150.1"/>
<line style="fill:none;stroke:#000000;stroke-width:2.1277;" x1="1.1" y1="299" x2="299" y2="1.1"/>
<line style="fill:none;stroke:#000000;stroke-width:2.1277;" x1="150.1" y1="299" x2="299" y2="150.1"/>
<line style="fill:none;stroke:#000000;stroke-width:2.1277;" x1="1.1" y1="150.1" x2="150.1" y2="1.1"/>
</svg>
