<?xml version="1.0" standalone="no"?>
<!DOCTYPE svg PUBLIC "-//W3C//DTD SVG 20010904//EN"
 "http://www.w3.org/TR/2001/REC-SVG-20010904/DTD/svg10.dtd">
<svg version="1.0" xmlns="http://www.w3.org/2000/svg"
 width="375.000000pt" height="416.000000pt" viewBox="0 0 375.000000 416.000000"
 preserveAspectRatio="xMidYMid meet">

<g transform="translate(0.000000,416.000000) scale(0.100000,-0.100000)"
fill="#000000" stroke="none">
<path d="M1080 4083 c-47 -37 -157 -139 -246 -228 -88 -88 -278 -270 -422
-405 -144 -134 -262 -247 -262 -251 0 -4 -29 -39 -65 -78 -36 -39 -65 -77 -65
-84 1 -14 19 -187 25 -232 2 -16 10 -66 18 -109 13 -70 13 -85 -1 -125 -8 -25
-23 -57 -34 -70 -19 -25 -24 -106 -12 -206 7 -50 7 -50 153 -177 191 -167 316
-282 341 -318 l20 -28 -40 -47 c-22 -26 -48 -61 -57 -78 -9 -18 -70 -113 -136
-212 -66 -99 -140 -209 -164 -245 -37 -56 -46 -80 -63 -170 -38 -198 -24 -354
38 -422 49 -55 70 -63 210 -87 207 -35 578 -118 997 -222 219 -55 474 -113
566 -129 92 -16 205 -38 251 -49 45 -10 126 -26 178 -35 52 -10 152 -28 223
-42 147 -28 223 -31 254 -9 12 8 36 41 54 73 72 126 356 573 438 686 47 67
117 171 156 231 38 61 110 173 159 250 49 77 104 164 122 194 l33 53 -5 117
c-3 64 -12 150 -19 192 -8 42 -17 194 -21 338 -8 306 -5 295 -118 368 -42 26
-114 75 -160 108 -46 33 -98 68 -115 77 -17 9 -36 29 -43 44 -11 23 -9 33 16
79 21 41 38 58 74 77 26 14 59 42 75 65 l29 40 -26 159 c-14 88 -26 183 -26
211 0 63 -4 66 -131 94 -94 20 -123 32 -184 74 -20 13 -170 67 -333 120 -163
53 -439 143 -612 200 -284 93 -923 275 -968 275 -10 0 -56 -30 -102 -67z
m2250 -781 c0 -40 37 -178 61 -224 l20 -39 -173 -179 c-95 -99 -209 -220 -253
-269 -44 -49 -172 -184 -284 -300 -182 -188 -208 -211 -236 -211 -61 0 -92 71
-75 174 18 114 43 148 262 372 113 115 267 277 344 359 76 83 178 190 226 238
48 49 88 93 88 98 0 5 5 9 10 9 6 0 10 -13 10 -28z m-3029 -386 c68 -18 149
-39 179 -46 76 -17 298 -83 460 -136 131 -42 358 -104 685 -185 171 -43 487
-145 557 -180 24 -12 55 -32 69 -46 26 -24 26 -25 14 -90 -10 -54 -10 -78 1
-132 8 -35 12 -66 11 -68 -2 -1 -61 18 -132 42 -71 25 -181 56 -245 71 -109
24 -381 95 -646 169 -66 18 -219 69 -340 113 -120 44 -287 100 -370 125 -83
25 -191 65 -240 89 -81 39 -91 47 -110 88 -28 58 -42 220 -20 220 2 0 58 -15
127 -34z m-104 -514 c32 -27 146 -117 253 -202 107 -84 273 -219 370 -299 96
-81 207 -171 245 -201 39 -30 102 -82 140 -115 39 -34 140 -113 225 -177 85
-64 179 -141 209 -171 l53 -55 -10 -49 c-6 -26 -10 -57 -10 -68 1 -11 1 -37 0
-59 l-2 -39 -50 47 c-27 25 -55 46 -62 46 -7 0 -57 43 -112 96 -54 52 -110
101 -125 109 -15 7 -70 54 -122 103 -52 49 -122 107 -155 128 -62 39 -204 156
-481 394 -79 69 -162 136 -184 150 -22 14 -46 35 -54 47 -8 11 -35 31 -59 42
-25 13 -69 50 -103 89 l-60 67 -5 80 c-3 44 -3 86 -1 92 6 17 27 5 100 -55z
m3426 -184 c3 -103 1 -151 -7 -161 -6 -8 -42 -36 -81 -63 -38 -26 -115 -83
-170 -125 -55 -42 -170 -122 -255 -179 -85 -57 -200 -137 -255 -179 -158 -120
-659 -450 -785 -518 -137 -73 -188 -90 -219 -74 -19 10 -21 20 -21 90 0 45 7
97 16 125 22 64 108 154 202 213 43 26 183 120 312 208 260 178 630 427 700
470 25 16 70 52 100 81 34 32 83 65 130 87 41 19 129 69 194 111 66 42 123 73
127 69 3 -5 9 -74 12 -155z m42 -618 c7 -54 6 -56 -40 -119 -152 -206 -317
-465 -520 -811 -116 -199 -195 -319 -304 -460 -30 -39 -69 -20 -104 52 -60
119 -37 180 165 442 38 49 85 118 105 155 20 36 64 107 98 156 34 50 90 135
125 190 34 55 84 127 110 161 26 33 55 76 65 95 9 19 76 122 148 230 l132 196
6 -116 c4 -64 10 -141 14 -171z m-3334 -660 c53 -5 156 -25 230 -44 74 -20
231 -51 349 -71 301 -50 454 -82 524 -109 34 -13 86 -30 116 -36 30 -7 73 -19
95 -27 75 -27 350 -95 417 -104 38 -5 119 -25 180 -44 62 -19 147 -45 188 -56
l75 -21 2 -87 c1 -58 8 -107 23 -150 11 -35 19 -65 17 -67 -6 -7 -191 35 -240
53 -23 8 -54 15 -69 14 -16 -1 -99 14 -185 33 -87 19 -239 48 -338 64 -99 17
-233 46 -298 66 -136 41 -518 136 -687 171 -63 13 -135 30 -160 39 -36 12
-327 76 -345 76 -3 0 -16 22 -30 50 -17 34 -25 65 -25 102 0 56 15 125 32 146
12 14 7 14 129 2z"/>
</g>
</svg>
